<?xml version="1.0" encoding="UTF-8" standalone="no"?>
<!-- Created with Inkscape (http://www.inkscape.org/) -->

<svg
   width="48"
   height="48"
   viewBox="0 0 12.7 12.7"
   version="1.1"
   id="svg1"
   inkscape:version="1.3.2 (091e20e, 2023-11-25, custom)"
   sodipodi:docname="drawing.svg"
   inkscape:export-filename="icon48.png"
   inkscape:export-xdpi="96"
   inkscape:export-ydpi="96"
   xmlns:inkscape="http://www.inkscape.org/namespaces/inkscape"
   xmlns:sodipodi="http://sodipodi.sourceforge.net/DTD/sodipodi-0.dtd"
   xmlns="http://www.w3.org/2000/svg"
   xmlns:svg="http://www.w3.org/2000/svg">
  <sodipodi:namedview
     id="namedview1"
     pagecolor="#ffffff"
     bordercolor="#000000"
     borderopacity="0.25"
     inkscape:showpageshadow="2"
     inkscape:pageopacity="0.0"
     inkscape:pagecheckerboard="0"
     inkscape:deskcolor="#d1d1d1"
     inkscape:document-units="mm"
     showgrid="false"
     showguides="true"
     inkscape:zoom="14.694726"
     inkscape:cx="-1.5651874"
     inkscape:cy="22.354959"
     inkscape:window-width="2560"
     inkscape:window-height="1494"
     inkscape:window-x="-11"
     inkscape:window-y="-11"
     inkscape:window-maximized="1"
     inkscape:current-layer="layer1"
     inkscape:export-bgcolor="#ffffffff">
    <inkscape:grid
       id="grid5"
       units="mm"
       originx="0"
       originy="0"
       spacingx="1"
       spacingy="1"
       empcolor="#0099e5"
       empopacity="0.30196078"
       color="#0099e5"
       opacity="0.14901961"
       empspacing="5"
       dotted="false"
       gridanglex="30"
       gridanglez="30"
       visible="false" />
  </sodipodi:namedview>
  <defs
     id="defs1" />
  <g
     inkscape:label="Layer 1"
     inkscape:groupmode="layer"
     id="layer1"
     transform="matrix(1.1117237,0,0,1.1179169,-0.79924209,-0.23857975)">
    <path
       style="fill:#e37500;stroke-width:0.240079;fill-opacity:1"
       id="path3"
       d="m 2.9220198,10.016389 c 0.016327,-0.0068 0.032369,-0.01441 0.048985,-0.02037 0.030335,-0.0109 0.061187,-0.02013 0.091781,-0.0302 0.05994,-0.02345 0.1196268,-0.04763 0.1798197,-0.07035 0.081444,-0.03074 0.1657344,-0.0537 0.2450731,-0.09004 C 3.6461508,9.7328625 3.7980488,9.6452475 3.9550469,9.5692131 4.176151,9.4621301 4.3995992,9.3604881 4.6218751,9.2561261 4.9128623,9.1232921 5.2025811,8.9873408 5.494837,8.857626 5.8386974,8.7050078 6.1823964,8.5517127 6.5301404,8.4091655 7.2747942,8.103918 8.1611915,7.7781675 8.9187506,7.5163486 9.3061707,7.3824522 9.6944815,7.2511067 10.08551,7.1293765 c 0.364506,-0.1134734 0.732978,-0.2123469 1.099466,-0.3185206 0,0 -0.0077,-0.00557 -0.0077,-0.00557 v 0 C 10.040322,7.1346897 10.058779,7.1141337 8.9110219,7.510824 8.5024691,7.652029 8.0952467,7.7976314 7.6900289,7.9490991 7.2989717,8.0952732 6.9123088,8.2541667 6.5223919,8.4036733 5.5849815,8.7631058 5.3934142,8.8289327 4.4854824,9.1598291 3.6709051,9.4528561 3.9213359,9.3779111 3.1900143,9.5917785 c -0.2439719,0.07135 -0.2480051,0.07273 -0.4782721,0.118545 -0.095724,0.01905 -0.088523,0.01698 -0.1671413,0.02609 z"
       inkscape:label="underline shadow" />
    <path
       style="fill:#000000;stroke-width:0.240079"
       id="path3-9"
       d="m 2.8693603,9.9597063 c 0.016327,-0.0068 0.032369,-0.01441 0.048985,-0.02037 0.030335,-0.0109 0.061187,-0.02013 0.091781,-0.0302 0.05994,-0.02345 0.1196268,-0.04763 0.1798197,-0.07035 0.081444,-0.03074 0.1657344,-0.0537 0.2450731,-0.09004 C 3.5934913,9.6761801 3.7453893,9.5885651 3.9023874,9.5125307 4.1234915,9.4054477 4.3469397,9.3038057 4.5692156,9.1994437 4.8602028,9.0666097 5.1499216,8.9306584 5.4421775,8.8009436 5.7860379,8.6483254 6.1297369,8.4950303 6.4774809,8.3524831 7.2221347,8.0472356 8.108532,7.7214851 8.8660911,7.4596662 9.2535112,7.3257698 9.641822,7.1944243 10.032851,7.0726941 c 0.364506,-0.1134734 0.732978,-0.2123469 1.099466,-0.3185206 0,0 -0.0077,-0.00557 -0.0077,-0.00557 v 0 C 9.9876625,7.0780073 10.00612,7.0574513 8.8583624,7.4541416 8.4498096,7.5953466 8.0425872,7.740949 7.6373694,7.8924167 7.2463122,8.0385908 6.8596493,8.1974843 6.4697324,8.3469909 5.532322,8.7064234 5.3407547,8.7722503 4.4328229,9.1031467 3.6182456,9.3961737 3.8686764,9.3212287 3.1373548,9.5350961 c -0.2439719,0.07135 -0.2480051,0.07273 -0.4782721,0.118545 -0.095724,0.01905 -0.088523,0.01698 -0.1671413,0.02609 z"
       inkscape:label="underline" />
    <path
       style="fill:#e37500;stroke-width:0.460078;fill-opacity:1"
       id="path4"
       d="m 2.4646559,3.3879211 c 0.021554,-0.028525 0.040971,-0.058579 0.064662,-0.085584 C 2.7426982,3.0591278 3.0192352,2.8676814 3.301983,2.7008441 3.3807144,2.6543884 3.4626459,2.6128426 3.5429777,2.568841 3.6896116,2.4962989 3.7802588,2.4483354 3.9275825,2.3860806 c 0.044123,-0.018649 0.087733,-0.039351 0.1342973,-0.051778 0.031091,-0.00831 0.064348,-0.013532 0.096434,-0.0098 0.021125,0.00246 0.075326,0.037105 0.056613,0.027623 -0.250404,-0.1268738 -0.5011249,-0.2531988 -0.751687,-0.3797978 0.012214,0.043033 0.031974,0.084794 0.036632,0.1291035 0.00801,0.076096 0.00307,0.1529459 0.00106,0.2293853 -0.00906,0.3428288 -0.020068,0.4189936 -0.06359,0.7756803 -0.059674,0.4890603 -0.060804,0.4661858 -0.1394564,0.95405 -0.02375,0.1426636 -0.125582,0.7521776 -0.1494958,0.9041538 -0.021368,0.1357953 -0.046721,0.2711904 -0.061183,0.4077793 -0.015236,0.1438303 -0.019754,0.2884822 -0.027824,0.432818 -0.022883,0.4092541 -0.019055,0.3933762 -0.026715,0.7914348 0.00561,0.3539433 -0.013456,0.7167501 0.085367,1.06258 0.041966,0.1468474 0.073851,0.1965929 0.1401887,0.3291594 0.078696,0.109021 0.086943,0.1334421 0.1858344,0.2226047 0.029857,0.02692 0.060065,0.054483 0.095633,0.074445 0.2806748,0.1575213 0.562852,0.3131264 0.851677,0.4572092 0.03409,0.017008 0.074468,0.021807 0.1130352,0.024047 0.040641,0.00235 0.081098,-0.00695 0.1216498,-0.010407 0.047453,-0.020797 0.097848,-0.036532 0.1423598,-0.062389 C 4.8268944,8.6600094 4.881052,8.61962 4.9334106,8.5778255 5.1042057,8.441489 5.1661438,8.3676168 5.3096502,8.1966746 5.5300754,7.9341082 5.5111801,7.9452749 5.7098663,7.6532574 5.774125,7.5469406 5.8415142,7.4422235 5.9026431,7.3343069 5.9659966,7.2224634 6.0242191,7.1081362 6.0831798,6.9942142 6.1884065,6.7908968 6.3066686,6.5579316 6.3917536,6.3456961 6.4651662,6.1625768 6.5497487,5.8904549 6.6106919,5.7019777 6.6402145,5.605637 6.6723542,5.5099626 6.699254,5.4129537 6.7263067,5.3154011 6.7483693,5.2166974 6.7724953,5.1184756 6.8564559,4.7766371 6.9318361,4.43304 7.0070179,4.0894334 7.0610242,3.8164012 7.1043762,3.5415677 7.1647181,3.2696317 c 0.026015,-0.1172512 0.041683,-0.1751873 0.070558,-0.2881549 0.00959,-0.034054 0.018652,-0.068243 0.028771,-0.1021654 0.00706,-0.023639 0.027747,-0.091975 0.042588,-0.1198518 0.00315,-0.00587 0.0198,-0.011952 0.013581,-0.014977 C 6.4506895,2.3209974 6.3232955,2.1074205 6.4986763,2.3853645 c 0.0076,0.096263 0.01198,0.1302045 0.010631,0.2374285 -7.139e-4,0.055479 -0.00507,0.110865 -0.00739,0.1663059 -0.00504,0.1203056 -0.010685,0.2890493 -0.017809,0.4079123 -0.00422,0.070394 -0.010203,0.1406869 -0.015308,0.2110295 -0.014876,0.1804398 -0.036686,0.3605166 -0.048471,0.5411887 -0.010757,0.164988 -0.012645,0.3306212 -0.019439,0.4957823 -0.00529,0.1416097 -0.00527,0.1622229 -0.013437,0.3005334 -0.00251,0.042963 -0.00723,0.08583 -0.00851,0.128843 -0.00143,0.047286 -1.48e-4,0.094613 4.332e-4,0.141914 0.00162,0.1334824 0.00381,0.1686065 0.00888,0.3019011 0.00381,0.1322991 0.01538,0.2643761 0.032596,0.3957204 0.00471,0.035886 0.00894,0.071878 0.015919,0.1074396 0.016603,0.084656 0.033297,0.1293844 0.059349,0.2118091 0.1109198,0.2474056 0.267284,0.4743421 0.4313331,0.6934894 0.029232,0.036648 0.051831,0.067193 0.08441,0.1005542 0.011765,0.012052 0.022194,0.026111 0.037195,0.034446 0.095731,0.053159 0.5532727,0.4346055 0.8813112,0.4523045 0.018152,9.784e-4 0.036367,1.024e-4 0.054552,1.535e-4 0.094282,-0.0037 0.1873153,-0.028598 0.2643207,-0.081125 0.067716,-0.04619 0.09717,-0.082674 0.1538418,-0.1408684 C 8.5820275,6.8568278 8.7228027,6.5989735 8.8622607,6.3421544 8.9014507,6.2573914 8.9618227,6.1326411 8.991212,6.0449134 9.020564,5.9573014 9.081258,5.709495 9.1018133,5.6258816 9.2131396,5.1730313 9.1011945,5.6165016 9.2108803,5.185574 c 0.04442,-0.172171 0.090267,-0.3446157 0.1202574,-0.5196687 0.0193,-0.1126469 0.0286,-0.2135831 0.042469,-0.3268123 0.00599,-0.048866 0.012538,-0.097672 0.018794,-0.1465078 0.025668,-0.1825741 0.04431,-0.3657941 0.063481,-0.5490158 0.00991,-0.0828 0.00545,-0.1655074 -0.00105,-0.2482447 -0.0056,-0.043982 -0.00381,-0.088305 -0.00597,-0.1324402 -3.369e-4,-0.00214 -0.00223,-0.00457 -9.994e-4,-0.00641 0.03176,-0.047947 0.083497,-0.093503 0.1253698,-0.1292784 0.047779,-0.040818 0.096905,-0.08033 0.1475745,-0.1179854 0.048611,-0.036112 0.4538944,-0.31628 0.4680224,-0.326073 0.23129,-0.1407254 0.405205,-0.2504523 0.64511,-0.3802192 0.10634,-0.057521 0.215762,-0.1099158 0.323644,-0.1648737 0,0 -0.604747,-0.3671896 -0.604747,-0.3671896 v 0 C 10.449661,1.8291077 10.346979,1.8881589 10.243271,1.9456092 10.02033,2.0691115 9.7942939,2.1876934 9.5718817,2.3120424 9.2205259,2.489237 9.3284536,2.4309508 9.0259151,2.595985 8.9645811,2.629444 8.9032203,2.662869 8.8423265,2.697025 8.8007245,2.720362 8.6747596,2.788999 8.6315622,2.8287726 c -0.010649,0.0098 -0.013743,0.024803 -0.020618,0.037202 -1.133e-4,0.047545 0.00703,0.094766 0.010562,0.1421426 0.010793,0.081977 0.027723,0.1635541 0.024681,0.2465384 0.00486,0.1901827 -0.00276,0.380374 -0.00888,0.5704676 -0.00315,0.049861 -0.00507,0.099803 -0.00941,0.1495856 -0.00867,0.099608 -0.025379,0.2241324 -0.039603,0.3231257 -0.00752,0.052329 -0.044262,0.2906424 -0.052181,0.3383622 -0.010739,0.064748 -0.022545,0.1293372 -0.03382,0.1940048 -0.040892,0.1954488 -0.047123,0.2439383 -0.1041544,0.4387186 -0.020723,0.070775 -0.042854,0.1412482 -0.068049,0.2107446 -0.022279,0.06145 -0.048791,0.1214924 -0.074293,0.1818378 -0.059164,0.1400076 -0.067285,0.1525961 -0.132583,0.2877821 -0.023146,0.044812 -0.045153,0.090155 -0.06944,0.1344372 C 8.0038258,6.1748008 7.9515026,6.2592676 7.8943701,6.3464849 7.8375511,6.4332219 7.7962421,6.4946047 7.729113,6.5740974 7.703836,6.6040284 7.675774,6.6318084 7.649105,6.6606654 7.591478,6.7098274 7.567956,6.7373534 7.4986504,6.769462 7.4208984,6.805486 7.3321845,6.81109 7.247658,6.800776 7.231864,6.796996 7.215589,6.794596 7.200245,6.789402 7.185585,6.784462 7.172139,6.776812 7.158085,6.770509 7.4062235,6.9063497 7.6543623,7.0421891 7.9025011,7.1780295 7.9184561,7.1867995 7.8688281,7.1632535 7.8537131,7.1532665 7.8144256,7.1273194 7.7727446,7.0834008 7.7405294,7.0522552 7.7159852,7.0256373 7.6906346,6.9996514 7.6669033,6.9723978 7.5120884,6.7946069 7.3783632,6.5986673 7.2907056,6.3839206 7.262192,6.301179 7.248047,6.2651297 7.2258105,6.1807397 7.1822571,6.0154351 7.160099,5.8459461 7.1478084,5.6763209 c -0.00228,-0.04938 -0.00603,-0.098722 -0.00691,-0.1481435 -0.0022,-0.1244861 0.00428,-0.1629003 0.00604,-0.285514 0.00209,-0.1461499 -0.00223,-0.292428 0.00276,-0.4385695 0.00347,-0.1652771 0.011189,-0.330294 0.016027,-0.495532 0.00538,-0.1842726 0.00923,-0.3686039 0.021251,-0.5526559 0.012466,-0.1612833 0.018296,-0.2567146 0.036738,-0.4171163 0.00718,-0.062432 0.016459,-0.1246408 0.024768,-0.1869528 0.00707,-0.053048 0.012179,-0.1063618 0.021384,-0.1591249 0.01252,-0.07177 0.031911,-0.141529 0.050408,-0.2119514 0.1310505,-0.3287921 0.049342,-0.069217 -0.8235304,-0.4536188 -0.00913,-0.004 0.00162,0.018809 0.00143,0.028223 C 6.496504,2.4386748 6.483909,2.5216152 6.476453,2.604496 6.465391,2.693219 6.449481,2.8229699 6.437416,2.909069 6.3984574,3.1870396 6.3481335,3.4635302 6.3041156,3.7408127 6.2754979,3.9403294 6.2651549,4.0247719 6.2284364,4.2273195 6.2023492,4.3712035 6.146435,4.6460668 6.1139352,4.7870756 6.091347,4.8850817 6.0655714,4.982425 6.0416325,5.0801515 6.0175119,5.17861 5.9937187,5.2771371 5.9697639,5.3756298 5.9396697,5.4813114 5.9129245,5.5878761 5.879479,5.6926745 5.8153035,5.8937688 5.7185391,6.146577 5.6334149,6.3406279 5.5845083,6.4521158 5.5339911,6.5631037 5.4780765,6.6716771 5.3279558,6.9631902 5.268558,7.0397606 5.0906043,7.3133715 5.0182606,7.4059835 4.9491463,7.5008746 4.8735734,7.591207 4.7352321,7.7565663 4.6118658,7.8876884 4.441363,8.0234362 4.3292119,8.1127263 4.1996291,8.1969268 4.0597805,8.2451546 4.0134805,8.2611236 3.9631925,8.2641586 3.9148969,8.2736626 3.8785139,8.2702826 3.8414109,8.2710326 3.805749,8.2634936 3.6080796,8.2217072 2.7191063,7.7024168 4.3492646,8.5857502 4.3873117,8.6063667 4.2738385,8.5431195 4.2390122,8.5180195 4.1284384,8.4383269 4.1148786,8.4115484 4.0234244,8.3097208 3.9355556,8.172762 3.9059504,8.1403263 3.8448459,7.9844422 3.7852672,7.8324506 3.7520394,7.6847759 3.7236175,7.5249938 3.6759024,7.2567495 3.6750896,7.1709893 3.6503463,6.8903715 3.6397669,6.5606682 3.6286962,6.4239536 3.6461817,6.0894708 c 0.00743,-0.142156 0.022662,-0.283867 0.035705,-0.4256691 0.04092,-0.4448404 0.09495,-0.8885938 0.1691156,-1.3297468 0.02736,-0.1583686 0.051819,-0.3171976 0.082081,-0.4751041 C 3.9665164,3.6845057 4.0752722,3.1862969 4.122036,2.999627 4.1490329,2.8918628 4.1822016,2.7855254 4.2108373,2.6781313 4.2505465,2.5292063 4.2663637,2.4574029 4.2992662,2.3163605 4.0270531,2.1577887 3.7619723,1.9879872 3.4826272,1.8406431 3.4584832,1.8279021 3.3414852,1.8905261 3.3390028,1.8919111 3.3006788,1.9132591 3.2644968,1.9378051 3.2275291,1.9611481 3.1148267,2.0323171 3.0037302,2.1056994 2.890036,2.1755063 2.729114,2.2749773 2.5673558,2.3732659 2.4066499,2.4730413 2.3237899,2.5244843 2.2416644,2.5769546 2.159038,2.6287253 2.084975,2.6751293 2.009911,2.7201543 1.9365806,2.7675632 c -0.052303,0.033813 -0.1023937,0.070536 -0.1543704,0.1047841 -0.034705,0.022869 -0.070428,0.044359 -0.1056414,0.066536 z"
       inkscape:label="W shadow" />
    <path
       style="fill:#000000;stroke-width:0.460078"
       id="path4-9"
       d="m 2.5507057,3.2693501 c 0.021554,-0.028525 0.040971,-0.058579 0.064662,-0.085584 C 2.828748,2.9405568 3.105285,2.7491104 3.3880328,2.5822731 3.4667642,2.5358174 3.5486957,2.4942716 3.6290275,2.45027 3.7756614,2.3777279 3.8663086,2.3297644 4.0136323,2.2675096 c 0.044123,-0.018649 0.087733,-0.039351 0.1342973,-0.051778 0.031091,-0.00831 0.064348,-0.013532 0.096434,-0.0098 0.021125,0.00246 0.075326,0.037105 0.056613,0.027623 -0.250404,-0.1268738 -0.5011249,-0.2531988 -0.751687,-0.3797978 0.012214,0.043033 0.031974,0.084794 0.036632,0.1291035 0.00801,0.076096 0.00307,0.1529459 0.00106,0.2293853 -0.00906,0.3428288 -0.020068,0.4189936 -0.06359,0.7756803 -0.059674,0.4890603 -0.060804,0.4661858 -0.1394564,0.95405 -0.02375,0.1426636 -0.125582,0.7521776 -0.1494958,0.9041538 -0.021368,0.1357953 -0.046721,0.2711904 -0.061183,0.4077793 -0.015236,0.1438303 -0.019754,0.2884822 -0.027824,0.432818 -0.022883,0.4092541 -0.019055,0.3933762 -0.026715,0.7914348 0.00561,0.3539433 -0.013456,0.7167501 0.085367,1.06258 0.041966,0.1468474 0.073851,0.1965929 0.1401887,0.3291594 0.078696,0.109021 0.086943,0.1334421 0.1858344,0.2226047 0.029857,0.02692 0.060065,0.054483 0.095633,0.074445 0.2806748,0.1575213 0.562852,0.3131264 0.851677,0.4572089 0.03409,0.01701 0.074468,0.02181 0.1130352,0.02405 0.040641,0.0023 0.081098,-0.0069 0.1216498,-0.01041 0.047453,-0.0208 0.097848,-0.03653 0.1423598,-0.062389 C 4.9129442,8.5414384 4.9671018,8.501049 5.0194604,8.4592545 5.1902555,8.322918 5.2521936,8.2490458 5.3957,8.0781036 5.6161252,7.8155372 5.5972299,7.8267039 5.7959161,7.5346864 5.8601748,7.4283696 5.927564,7.3236525 5.9886929,7.2157359 6.0520464,7.1038924 6.1102689,6.9895652 6.1692296,6.8756432 6.2744563,6.6723258 6.3927184,6.4393606 6.4778034,6.2271251 6.551216,6.0440058 6.6357985,5.7718839 6.6967417,5.5834067 6.7262643,5.487066 6.758404,5.3913916 6.7853038,5.2943827 6.8123565,5.1968301 6.8344191,5.0981264 6.8585451,4.9999046 6.9425057,4.6580661 7.0178859,4.314469 7.0930677,3.9708624 7.147074,3.6978302 7.190426,3.4229967 7.2507679,3.1510607 c 0.026015,-0.1172512 0.041683,-0.1751873 0.070558,-0.2881549 0.00959,-0.034054 0.018652,-0.068243 0.028771,-0.1021654 0.00706,-0.023639 0.027747,-0.091975 0.042588,-0.1198518 0.00315,-0.00587 0.0198,-0.011952 0.013581,-0.014977 C 6.5367393,2.2024264 6.4093453,1.9888495 6.5847261,2.2667935 c 0.0076,0.096263 0.01198,0.1302045 0.010631,0.2374285 -7.139e-4,0.055479 -0.00507,0.110865 -0.00739,0.1663059 -0.00504,0.1203056 -0.010685,0.2890493 -0.017809,0.4079123 -0.00422,0.070394 -0.010203,0.1406869 -0.015308,0.2110295 -0.014876,0.1804398 -0.036686,0.3605166 -0.048471,0.5411887 -0.010757,0.164988 -0.012645,0.3306212 -0.019439,0.4957823 -0.00529,0.1416097 -0.00527,0.1622229 -0.013437,0.3005334 -0.00251,0.042963 -0.00723,0.08583 -0.00851,0.128843 -0.00143,0.047286 -1.48e-4,0.094613 4.332e-4,0.141914 0.00162,0.1334824 0.00381,0.1686065 0.00888,0.3019011 0.00381,0.1322991 0.01538,0.2643761 0.032596,0.3957204 0.00471,0.035886 0.00894,0.071878 0.015919,0.1074396 0.016603,0.084656 0.033297,0.1293844 0.059349,0.2118091 0.1109198,0.2474056 0.267284,0.4743421 0.4313331,0.6934894 0.029232,0.036648 0.051831,0.067193 0.08441,0.1005542 0.011765,0.012052 0.022194,0.026111 0.037195,0.034446 0.095731,0.053159 0.5532727,0.4346055 0.8813112,0.4523045 0.018152,9.784e-4 0.036367,1.024e-4 0.054552,1.535e-4 0.094282,-0.0037 0.1873153,-0.028598 0.2643207,-0.081125 0.067716,-0.04619 0.09717,-0.082674 0.1538418,-0.1408684 0.1789432,-0.2352987 0.3197184,-0.493153 0.4591764,-0.7499721 0.03919,-0.084763 0.099562,-0.2095133 0.1289513,-0.297241 0.029352,-0.087612 0.090046,-0.3354184 0.1106013,-0.4190318 0.1113263,-0.4528503 -6.188e-4,-0.00938 0.109067,-0.4403076 0.04442,-0.172171 0.090267,-0.3446157 0.1202574,-0.5196687 0.0193,-0.1126469 0.0286,-0.2135831 0.042469,-0.3268123 0.00599,-0.048866 0.012538,-0.097672 0.018794,-0.1465078 0.025668,-0.1825741 0.04431,-0.3657941 0.063481,-0.5490158 0.00991,-0.0828 0.00545,-0.1655074 -0.00105,-0.2482447 -0.0056,-0.043982 -0.00381,-0.088305 -0.00597,-0.1324402 -3.369e-4,-0.00214 -0.00223,-0.00457 -9.994e-4,-0.00641 0.03176,-0.047947 0.083497,-0.093503 0.1253698,-0.1292784 0.047779,-0.040818 0.096905,-0.08033 0.1475745,-0.1179854 0.048611,-0.036112 0.4538946,-0.31628 0.4680226,-0.326073 0.23129,-0.1407254 0.405205,-0.2504523 0.64511,-0.3802192 0.10634,-0.057521 0.215762,-0.1099158 0.323644,-0.1648737 0,0 -0.604747,-0.3671896 -0.604747,-0.3671896 v 0 C 10.535711,1.7105367 10.433029,1.7695879 10.329321,1.8270382 10.10638,1.9505405 9.8803437,2.0691224 9.6579315,2.1934714 9.3065757,2.370666 9.4145034,2.3123798 9.1119649,2.477414 9.0506309,2.510873 8.9892701,2.544298 8.9283763,2.578454 8.8867743,2.601791 8.7608094,2.670428 8.717612,2.7102016 c -0.010649,0.0098 -0.013743,0.024803 -0.020618,0.037202 -1.133e-4,0.047545 0.00703,0.094766 0.010562,0.1421426 0.010793,0.081977 0.027723,0.1635541 0.024681,0.2465384 0.00486,0.1901827 -0.00276,0.380374 -0.00888,0.5704676 -0.00315,0.049861 -0.00507,0.099803 -0.00941,0.1495856 C 8.705277,3.9557458 8.688568,4.0802702 8.674344,4.1792635 8.666824,4.2315925 8.630082,4.4699059 8.622163,4.5176257 8.611424,4.5823737 8.599618,4.6469629 8.588343,4.7116305 8.547451,4.9070793 8.54122,4.9555688 8.4841886,5.1503491 c -0.020723,0.070775 -0.042854,0.1412482 -0.068049,0.2107446 -0.022279,0.06145 -0.048791,0.1214924 -0.074293,0.1818378 -0.059164,0.1400076 -0.067285,0.1525961 -0.132583,0.2877821 -0.023146,0.044812 -0.045153,0.090155 -0.06944,0.1344372 -0.049948,0.091079 -0.1022712,0.1755458 -0.1594037,0.2627631 -0.056819,0.086737 -0.098128,0.1481198 -0.1652571,0.2276125 -0.025277,0.029931 -0.053339,0.057711 -0.080008,0.086568 -0.057627,0.049162 -0.081149,0.076688 -0.1504546,0.1087966 -0.077752,0.036024 -0.1664659,0.041628 -0.2509924,0.031314 -0.015794,-0.00378 -0.032069,-0.00618 -0.047413,-0.011374 -0.01466,-0.00494 -0.028106,-0.01259 -0.04216,-0.018893 0.2481385,0.1358407 0.4962773,0.2716801 0.7444161,0.4075205 0.015955,0.00877 -0.033673,-0.014776 -0.048788,-0.024763 C 7.9004754,7.0087484 7.8587944,6.9648298 7.8265792,6.9336842 7.802035,6.9070663 7.7766844,6.8810804 7.7529531,6.8538268 7.5981382,6.6760359 7.464413,6.4800963 7.3767554,6.2653496 7.3482418,6.182608 7.3340968,6.1465587 7.3118603,6.0621687 7.2683069,5.8968641 7.2461488,5.7273751 7.2338582,5.5577499 c -0.00228,-0.04938 -0.00603,-0.098722 -0.00691,-0.1481435 -0.0022,-0.1244861 0.00428,-0.1629003 0.00604,-0.285514 0.00209,-0.1461499 -0.00223,-0.292428 0.00276,-0.4385695 0.00347,-0.1652771 0.011189,-0.330294 0.016027,-0.495532 0.00538,-0.1842726 0.00923,-0.3686039 0.021251,-0.5526559 0.012466,-0.1612833 0.018296,-0.2567146 0.036738,-0.4171163 0.00718,-0.062432 0.016459,-0.1246408 0.024768,-0.1869528 0.00707,-0.053048 0.012179,-0.1063618 0.021384,-0.1591249 0.01252,-0.07177 0.031911,-0.141529 0.050408,-0.2119514 0.1310505,-0.3287921 0.049342,-0.069217 -0.8235304,-0.4536188 -0.00913,-0.004 0.00162,0.018809 0.00143,0.028223 -0.00167,0.08331 -0.014265,0.1662504 -0.021721,0.2491312 C 6.5514408,2.574648 6.5355308,2.7043989 6.5234658,2.790498 6.4845072,3.0684686 6.4341833,3.3449592 6.3901654,3.6222417 6.3615477,3.8217584 6.3512047,3.9062009 6.3144862,4.1087485 6.288399,4.2526325 6.2324848,4.5274958 6.199985,4.6685046 6.1773968,4.7665107 6.1516212,4.863854 6.1276823,4.9615805 6.1035617,5.060039 6.0797685,5.1585661 6.0558137,5.2570588 6.0257195,5.3627404 5.9989743,5.4693051 5.9655288,5.5741035 5.9013533,5.7751978 5.8045889,6.028006 5.7194647,6.2220569 5.6705581,6.3335448 5.6200409,6.4445327 5.5641263,6.5531061 5.4140056,6.8446192 5.3546078,6.9211896 5.1766541,7.1948005 5.1043104,7.2874125 5.0351961,7.3823036 4.9596232,7.472636 4.8212819,7.6379953 4.6979156,7.7691174 4.5274128,7.9048652 4.4152617,7.9941553 4.2856789,8.0783558 4.1458303,8.1265836 c -0.0463,0.015969 -0.096588,0.019004 -0.1448836,0.028508 -0.036383,-0.00338 -0.073486,-0.00263 -0.1091479,-0.010169 C 3.6941294,8.1031362 2.8051561,7.5838458 4.4353144,8.4671792 4.4733615,8.4877957 4.3598883,8.4245485 4.325062,8.3994485 4.2144882,8.3197559 4.2009284,8.2929774 4.1094742,8.1911498 4.0216054,8.054191 3.9920002,8.0217553 3.9308957,7.8658712 3.871317,7.7138796 3.8380892,7.5662049 3.8096673,7.4064228 3.7619522,7.1381785 3.7611394,7.0524183 3.7363961,6.7718005 3.7258167,6.4420972 3.714746,6.3053826 3.7322315,5.9708998 c 0.00743,-0.142156 0.022662,-0.283867 0.035705,-0.4256691 0.04092,-0.4448404 0.09495,-0.8885938 0.1691156,-1.3297468 0.02736,-0.1583686 0.051819,-0.3171976 0.082081,-0.4751041 C 4.0525662,3.5659347 4.161322,3.0677259 4.2080858,2.881056 4.2350827,2.7732918 4.2682514,2.6669544 4.2968871,2.5595603 4.3365963,2.4106353 4.3524135,2.3388319 4.385316,2.1977895 4.1131029,2.0392177 3.8480221,1.8694162 3.568677,1.7220721 3.544533,1.7093311 3.427535,1.7719551 3.4250526,1.7733401 3.3867286,1.7946881 3.3505466,1.8192341 3.3135789,1.8425771 3.2008765,1.9137461 3.08978,1.9871284 2.9760858,2.0569353 2.8151638,2.1564063 2.6534056,2.2546949 2.4926997,2.3544703 2.4098397,2.4059133 2.3277142,2.4583836 2.2450878,2.5101543 2.1710248,2.5565583 2.0959608,2.6015833 2.0226304,2.6489922 1.9703274,2.6828052 1.9202367,2.7195282 1.86826,2.7537763 1.833555,2.7766453 1.797832,2.7981353 1.7626186,2.8203123 Z"
       inkscape:label="W" />
  </g>
</svg>
